# vtk DataFile Version 3.0
Meshless CFD Point Cloud
ASCII
DATASET UNSTRUCTURED_GRID
POINTS 1728 float
0 0 0
0.1 0 0
0.2 0 0
0.3 0 0
0.4 0 0
0.5 0 0
0.6 0 0
0.7 0 0
0.8 0 0
0.9 0 0
1 0 0
1.1 0 0
0 0.1 0
0.1 0.1 0
0.2 0.1 0
0.3 0.1 0
0.4 0.1 0
0.5 0.1 0
0.6 0.1 0
0.7 0.1 0
0.8 0.1 0
0.9 0.1 0
1 0.1 0
1.1 0.1 0
0 0.2 0
0.1 0.2 0
0.2 0.2 0
0.3 0.2 0
0.4 0.2 0
0.5 0.2 0
0.6 0.2 0
0.7 0.2 0
0.8 0.2 0
0.9 0.2 0
1 0.2 0
1.1 0.2 0
0 0.3 0
0.1 0.3 0
0.2 0.3 0
0.3 0.3 0
0.4 0.3 0
0.5 0.3 0
0.6 0.3 0
0.7 0.3 0
0.8 0.3 0
0.9 0.3 0
1 0.3 0
1.1 0.3 0
0 0.4 0
0.1 0.4 0
0.2 0.4 0
0.3 0.4 0
0.4 0.4 0
0.5 0.4 0
0.6 0.4 0
0.7 0.4 0
0.8 0.4 0
0.9 0.4 0
1 0.4 0
1.1 0.4 0
0 0.5 0
0.1 0.5 0
0.2 0.5 0
0.3 0.5 0
0.4 0.5 0
0.5 0.5 0
0.6 0.5 0
0.7 0.5 0
0.8 0.5 0
0.9 0.5 0
1 0.5 0
1.1 0.5 0
0 0.6 0
0.1 0.6 0
0.2 0.6 0
0.3 0.6 0
0.4 0.6 0
0.5 0.6 0
0.6 0.6 0
0.7 0.6 0
0.8 0.6 0
0.9 0.6 0
1 0.6 0
1.1 0.6 0
0 0.7 0
0.1 0.7 0
0.2 0.7 0
0.3 0.7 0
0.4 0.7 0
0.5 0.7 0
0.6 0.7 0
0.7 0.7 0
0.8 0.7 0
0.9 0.7 0
1 0.7 0
1.1 0.7 0
0 0.8 0
0.1 0.8 0
0.2 0.8 0
0.3 0.8 0
0.4 0.8 0
0.5 0.8 0
0.6 0.8 0
0.7 0.8 0
0.8 0.8 0
0.9 0.8 0
1 0.8 0
1.1 0.8 0
0 0.9 0
0.1 0.9 0
0.2 0.9 0
0.3 0.9 0
0.4 0.9 0
0.5 0.9 0
0.6 0.9 0
0.7 0.9 0
0.8 0.9 0
0.9 0.9 0
1 0.9 0
1.1 0.9 0
0 1 0
0.1 1 0
0.2 1 0
0.3 1 0
0.4 1 0
0.5 1 0
0.6 1 0
0.7 1 0
0.8 1 0
0.9 1 0
1 1 0
1.1 1 0
0 1.1 0
0.1 1.1 0
0.2 1.1 0
0.3 1.1 0
0.4 1.1 0
0.5 1.1 0
0.6 1.1 0
0.7 1.1 0
0.8 1.1 0
0.9 1.1 0
1 1.1 0
1.1 1.1 0
0 0 0.1
0.1 0 0.1
0.2 0 0.1
0.3 0 0.1
0.4 0 0.1
0.5 0 0.1
0.6 0 0.1
0.7 0 0.1
0.8 0 0.1
0.9 0 0.1
1 0 0.1
1.1 0 0.1
0 0.1 0.1
0.102965 0.0968343 0.102797
0.200969 0.0994583 0.0959997
0.299592 0.0983371 0.0964287
0.401509 0.0955641 0.10222
0.504386 0.0950078 0.104922
0.601175 0.101117 0.0950707
0.695231 0.100248 0.0989986
0.795467 0.104738 0.0973277
0.895906 0.101184 0.0988246
1.00483 0.0996676 0.103599
1.1 0.1 0.1
0 0.2 0.1
0.101803 0.199505 0.0951326
0.204422 0.200633 0.0988542
0.29516 0.197309 0.0974103
0.401833 0.2011 0.103332
0.496734 0.198911 0.0968224
0.602554 0.199252 0.0970794
0.700677 0.195313 0.103423
0.799498 0.198952 0.104267
0.902273 0.198265 0.100704
1.00021 0.204612 0.103445
1.1 0.2 0.1
0 0.3 0.1
0.102473 0.300397 0.100868
0.204653 0.30107 0.09776
0.297963 0.296653 0.0951564
0.399234 0.298949 0.0979349
0.495141 0.296988 0.102113
0.602902 0.30106 0.104263
0.701511 0.30415 0.1035
0.799495 0.295954 0.0987082
0.901688 0.301659 0.100913
0.997747 0.300612 0.0988293
1.1 0.3 0.1
0 0.4 0.1
0.104717 0.403489 0.102217
0.19736 0.397561 0.0954043
0.302107 0.396109 0.0993934
0.397017 0.403958 0.0997537
0.500633 0.401955 0.0963933
0.601044 0.400398 0.0970306
0.704429 0.400989 0.101948
0.803805 0.401244 0.0979563
0.896055 0.399565 0.0971844
0.999165 0.403833 0.0982435
1.1 0.4 0.1
0 0.5 0.1
0.0962209 0.498563 0.104068
0.197721 0.501477 0.0950052
0.298526 0.498048 0.0966466
0.400341 0.499848 0.101924
0.497694 0.497441 0.0966829
0.597188 0.500581 0.0990384
0.695649 0.497539 0.0974688
0.801963 0.502123 0.0964809
0.904977 0.497668 0.104766
0.99911 0.495331 0.0984507
1.1 0.5 0.1
0 0.6 0.1
0.101344 0.601807 0.100309
0.199478 0.600529 0.100927
0.295809 0.598697 0.0974216
0.403031 0.599703 0.104834
0.498988 0.603164 0.102983
0.596507 0.600082 0.101958
0.703584 0.59826 0.0972024
0.802111 0.603095 0.0984867
0.895962 0.604405 0.0989757
1.00018 0.603377 0.101757
1.1 0.6 0.1
0 0.7 0.1
0.102352 0.697091 0.100414
0.201958 0.697286 0.0967495
0.304822 0.700166 0.0976083
0.404963 0.704654 0.100583
0.503826 0.696887 0.0977887
0.602004 0.703467 0.103563
0.699045 0.703878 0.103509
0.804356 0.702853 0.10169
0.900807 0.698723 0.104401
1.00474 0.697839 0.0980536
1.1 0.7 0.1
0 0.8 0.1
0.0998561 0.799484 0.104945
0.196759 0.795181 0.0999389
0.296788 0.798665 0.102442
0.402209 0.798081 0.100425
0.500088 0.801363 0.0975046
0.600899 0.804789 0.0998674
0.704061 0.799344 0.0985008
0.801451 0.801689 0.103642
0.897302 0.799992 0.10072
1.00269 0.795436 0.104946
1.1 0.8 0.1
0 0.9 0.1
0.0996994 0.897796 0.103835
0.202477 0.904531 0.0983075
0.300528 0.900723 0.104803
0.395753 0.898057 0.0969091
0.497685 0.899853 0.0987269
0.598947 0.903442 0.1043
0.695704 0.897089 0.101711
0.798586 0.897542 0.0979529
0.898226 0.903487 0.0963662
1.00209 0.900528 0.0979651
1.1 0.9 0.1
0 1 0.1
0.0991978 0.997562 0.101115
0.195816 0.995052 0.101279
0.296943 0.995709 0.0989678
0.395508 1.00387 0.0952762
0.500789 0.999385 0.10172
0.598282 0.99655 0.104818
0.703389 1.0036 0.0975025
0.795388 0.998033 0.100371
0.898267 1.00328 0.0977154
1.00465 0.999573 0.10342
1.1 1 0.1
0 1.1 0.1
0.1 1.1 0.1
0.2 1.1 0.1
0.3 1.1 0.1
0.4 1.1 0.1
0.5 1.1 0.1
0.6 1.1 0.1
0.7 1.1 0.1
0.8 1.1 0.1
0.9 1.1 0.1
1 1.1 0.1
1.1 1.1 0.1
0 0 0.2
0.1 0 0.2
0.2 0 0.2
0.3 0 0.2
0.4 0 0.2
0.5 0 0.2
0.6 0 0.2
0.7 0 0.2
0.8 0 0.2
0.9 0 0.2
1 0 0.2
1.1 0 0.2
0 0.1 0.2
0.0969438 0.0991135 0.201995
0.196384 0.0963275 0.204695
0.302146 0.0954107 0.198988
0.399335 0.10244 0.197509
0.496843 0.0958087 0.199283
0.601885 0.0955819 0.204152
0.699424 0.0973979 0.195939
0.796829 0.104346 0.201383
0.900167 0.101571 0.199357
1.0023 0.0954772 0.20066
1.1 0.1 0.2
0 0.2 0.2
0.0965865 0.196202 0.198419
0.195918 0.195942 0.198114
0.304795 0.196753 0.195172
0.402634 0.203069 0.198463
0.499647 0.201498 0.195481
0.604491 0.203867 0.197609
0.695153 0.204334 0.20001
0.800394 0.20184 0.201159
0.904439 0.204443 0.203672
1.00136 0.203009 0.201772
1.1 0.2 0.2
0 0.3 0.2
0.100734 0.296285 0.203112
0.203206 0.301259 0.203204
0.301515 0.297067 0.19774
0.397146 0.298773 0.19539
0.501183 0.298366 0.201557
0.598854 0.301816 0.198406
0.697607 0.29996 0.201929
0.798483 0.304366 0.195392
0.899179 0.304676 0.20048
0.999235 0.300685 0.200759
1.1 0.3 0.2
0 0.4 0.2
0.102316 0.396277 0.1975
0.200805 0.403671 0.200619
0.297386 0.401798 0.202399
0.397382 0.398777 0.200343
0.499966 0.398896 0.197976
0.596 0.395535 0.204585
0.703471 0.398549 0.204568
0.801768 0.399825 0.19993
0.895833 0.395917 0.201024
1.00054 0.397127 0.204462
1.1 0.4 0.2
0 0.5 0.2
0.102813 0.496135 0.204309
0.204742 0.504959 0.195559
0.30237 0.500459 0.202058
0.404687 0.50188 0.20337
0.503669 0.503385 0.199261
0.597226 0.498967 0.203919
0.696466 0.500133 0.197332
0.800813 0.503631 0.203804
0.897367 0.504077 0.200919
0.998502 0.502082 0.199817
1.1 0.5 0.2
0 0.6 0.2
0.0987799 0.602051 0.197487
0.198303 0.599345 0.197537
0.299052 0.600715 0.20241
0.402672 0.603228 0.202442
0.50181 0.597375 0.199002
0.599777 0.595829 0.200284
0.699363 0.603021 0.204779
0.80056 0.598227 0.195434
0.904246 0.604191 0.19753
1.00195 0.595754 0.196662
1.1 0.6 0.2
0 0.7 0.2
0.0971681 0.697945 0.204958
0.201969 0.698842 0.202371
0.304153 0.704587 0.195579
0.398945 0.696068 0.198357
0.496697 0.701468 0.198883
0.597294 0.697659 0.198603
0.697599 0.699532 0.195323
0.797798 0.699112 0.201028
0.89771 0.696332 0.195762
1.00441 0.699166 0.200812
1.1 0.7 0.2
0 0.8 0.2
0.104192 0.795827 0.203767
0.200516 0.796648 0.199113
0.302776 0.799804 0.204853
0.398767 0.802496 0.19893
0.503292 0.800691 0.195635
0.595368 0.796339 0.195137
0.695754 0.801917 0.200343
0.802499 0.804132 0.200851
0.902261 0.802571 0.198779
0.997411 0.79705 0.197514
1.1 0.8 0.2
0 0.9 0.2
0.0977473 0.897072 0.203782
0.20257 0.895469 0.197687
0.295222 0.899982 0.199762
0.403314 0.898078 0.203164
0.50468 0.895884 0.202918
0.6009 0.8998 0.199205
0.702847 0.901394 0.20305
0.804032 0.901173 0.204805
0.901081 0.901366 0.200548
0.99591 0.902264 0.200474
1.1 0.9 0.2
0 1 0.2
0.0995091 1.0041 0.19798
0.200236 1.00198 0.202965
0.299593 1.00342 0.202689
0.395662 0.995459 0.201208
0.498474 0.997091 0.200796
0.598416 1.00037 0.199601
0.700848 0.999003 0.201977
0.796801 1.00197 0.199117
0.903743 1.00015 0.204731
1.00102 0.997238 0.203218
1.1 1 0.2
0 1.1 0.2
0.1 1.1 0.2
0.2 1.1 0.2
0.3 1.1 0.2
0.4 1.1 0.2
0.5 1.1 0.2
0.6 1.1 0.2
0.7 1.1 0.2
0.8 1.1 0.2
0.9 1.1 0.2
1 1.1 0.2
1.1 1.1 0.2
0 0 0.3
0.1 0 0.3
0.2 0 0.3
0.3 0 0.3
0.4 0 0.3
0.5 0 0.3
0.6 0 0.3
0.7 0 0.3
0.8 0 0.3
0.9 0 0.3
1 0 0.3
1.1 0 0.3
0 0.1 0.3
0.0984508 0.0984762 0.295318
0.200487 0.100344 0.29856
0.303942 0.0962875 0.298301
0.398216 0.0959229 0.299811
0.501878 0.100117 0.29657
0.598773 0.095026 0.303683
0.695845 0.100973 0.304863
0.800366 0.10424 0.297361
0.9026 0.100313 0.302205
0.995623 0.0964774 0.296331
1.1 0.1 0.3
0 0.2 0.3
0.101872 0.203444 0.302496
0.195305 0.203672 0.298541
0.298972 0.196049 0.302374
0.396823 0.20064 0.303407
0.495892 0.200353 0.297332
0.598429 0.19974 0.298551
0.701488 0.199796 0.300842
0.802368 0.200577 0.300865
0.900645 0.198788 0.298374
1.004 0.201076 0.297444
1.1 0.2 0.3
0 0.3 0.3
0.0999825 0.298303 0.304337
0.195075 0.297253 0.298654
0.299878 0.303508 0.295879
0.403059 0.295557 0.303423
0.495516 0.295182 0.30197
0.604973 0.303966 0.30076
0.704174 0.295053 0.304751
0.799907 0.302229 0.303209
0.902185 0.30035 0.299766
1.00339 0.297051 0.30468
1.1 0.3 0.3
0 0.4 0.3
0.10211 0.396995 0.302362
0.200298 0.402072 0.302678
0.295873 0.400061 0.30432
0.398206 0.400939 0.298692
0.499543 0.400486 0.300489
0.597017 0.401846 0.295879
0.696388 0.395027 0.296167
0.799732 0.401061 0.302943
0.896067 0.403507 0.30246
0.999085 0.404329 0.304909
1.1 0.4 0.3
0 0.5 0.3
0.09705 0.498792 0.304264
0.202216 0.495481 0.302815
0.303279 0.502505 0.302995
0.403251 0.496864 0.297357
0.501338 0.504079 0.298162
0.600883 0.50183 0.299519
0.702138 0.503997 0.301241
0.800398 0.499387 0.300775
0.898554 0.498915 0.300319
0.995666 0.49729 0.300428
1.1 0.5 0.3
0 0.6 0.3
0.0993153 0.598328 0.302305
0.201937 0.596667 0.303786
0.299954 0.602415 0.300732
0.404977 0.602524 0.30207
0.502786 0.596431 0.297045
0.602141 0.59994 0.302546
0.696029 0.600365 0.298788
0.79957 0.60104 0.300023
0.900399 0.599864 0.29909
1.00272 0.595122 0.300984
1.1 0.6 0.3
0 0.7 0.3
0.100655 0.702162 0.30099
0.203268 0.704591 0.298425
0.297274 0.699236 0.297879
0.40115 0.704119 0.296391
0.496008 0.69756 0.302261
0.60093 0.696022 0.304188
0.702901 0.69523 0.301514
0.802712 0.698744 0.295689
0.895773 0.696042 0.303404
1.00411 0.696228 0.297359
1.1 0.7 0.3
0 0.8 0.3
0.0966552 0.796863 0.303375
0.198321 0.798114 0.297274
0.301079 0.798793 0.302442
0.397056 0.802878 0.301037
0.496143 0.799145 0.303635
0.60423 0.799657 0.299808
0.704185 0.800871 0.295328
0.804127 0.797482 0.300776
0.896655 0.795339 0.298115
1.0028 0.797776 0.297201
1.1 0.8 0.3
0 0.9 0.3
0.0971268 0.900152 0.304755
0.19959 0.900573 0.303606
0.300351 0.896845 0.297996
0.398099 0.898973 0.299268
0.502998 0.898494 0.299682
0.60125 0.898777 0.303366
0.700875 0.89794 0.302141
0.800276 0.900345 0.299811
0.89997 0.902654 0.29603
0.998344 0.895755 0.302532
1.1 0.9 0.3
0 1 0.3
0.097723 1.00397 0.300266
0.203007 1.00479 0.303398
0.30367 0.99908 0.300517
0.397539 0.996961 0.300055
0.50095 0.998393 0.300694
0.603875 1.00057 0.302208
0.703053 1.00489 0.301032
0.803069 1.00463 0.304444
0.896411 0.999064 0.29824
0.995869 1.00133 0.302359
1.1 1 0.3
0 1.1 0.3
0.1 1.1 0.3
0.2 1.1 0.3
0.3 1.1 0.3
0.4 1.1 0.3
0.5 1.1 0.3
0.6 1.1 0.3
0.7 1.1 0.3
0.8 1.1 0.3
0.9 1.1 0.3
1 1.1 0.3
1.1 1.1 0.3
0 0 0.4
0.1 0 0.4
0.2 0 0.4
0.3 0 0.4
0.4 0 0.4
0.5 0 0.4
0.6 0 0.4
0.7 0 0.4
0.8 0 0.4
0.9 0 0.4
1 0 0.4
1.1 0 0.4
0 0.1 0.4
0.103481 0.0962278 0.403764
0.201429 0.102039 0.404106
0.301248 0.0983587 0.403251
0.398631 0.0953423 0.403307
0.498452 0.102738 0.398628
0.603611 0.0971951 0.404745
0.702798 0.0961424 0.400658
0.804854 0.0997107 0.396821
0.899848 0.100125 0.402417
1.00199 0.0990255 0.39718
1.1 0.1 0.4
0 0.2 0.4
0.101451 0.199217 0.396323
0.204006 0.201912 0.401832
0.303226 0.200297 0.403151
0.399981 0.195672 0.399052
0.499975 0.202202 0.396066
0.5964 0.197637 0.397665
0.702322 0.197507 0.401331
0.799943 0.200733 0.403381
0.899044 0.202709 0.39922
0.998539 0.204586 0.396844
1.1 0.2 0.4
0 0.3 0.4
0.0959034 0.30271 0.395682
0.203371 0.299372 0.404155
0.302215 0.301104 0.404493
0.398966 0.304541 0.39635
0.499838 0.297699 0.400398
0.59662 0.303415 0.403464
0.704552 0.296547 0.401233
0.799742 0.298444 0.398515
0.899128 0.302049 0.400983
0.999597 0.295759 0.395778
1.1 0.3 0.4
0 0.4 0.4
0.0950234 0.404677 0.395053
0.196031 0.398146 0.403074
0.304621 0.4029 0.401906
0.400213 0.395867 0.404582
0.502584 0.401389 0.40259
0.602241 0.401372 0.404806
0.704034 0.401467 0.401932
0.795516 0.401699 0.395442
0.900883 0.404994 0.400558
0.999732 0.398129 0.396205
1.1 0.4 0.4
0 0.5 0.4
0.10231 0.496926 0.396153
0.199218 0.502953 0.402451
0.295549 0.499551 0.400224
0.401445 0.501502 0.398647
0.500607 0.499811 0.40385
0.600303 0.49941 0.399045
0.700724 0.50304 0.400384
0.801617 0.502379 0.400202
0.899268 0.503767 0.399175
0.999619 0.504903 0.395002
1.1 0.5 0.4
0 0.6 0.4
0.0968547 0.59884 0.404326
0.1957 0.595095 0.395527
0.295885 0.595376 0.399798
0.400808 0.597717 0.398983
0.495917 0.598364 0.400225
0.602323 0.595033 0.399673
0.69797 0.603528 0.402156
0.800891 0.597773 0.404103
0.895451 0.596095 0.398916
0.996244 0.604564 0.40298
1.1 0.6 0.4
0 0.7 0.4
0.0975898 0.700886 0.404823
0.203842 0.701008 0.404037
0.304892 0.702434 0.39565
0.399016 0.703378 0.397306
0.503306 0.696203 0.395469
0.598841 0.695367 0.404573
0.703262 0.703008 0.401298
0.797163 0.700183 0.400973
0.90025 0.697602 0.400152
0.999912 0.704963 0.403974
1.1 0.7 0.4
0 0.8 0.4
0.0996338 0.801229 0.402479
0.195349 0.803949 0.403601
0.299574 0.798912 0.39773
0.399767 0.795444 0.403522
0.495354 0.798291 0.404316
0.602352 0.797814 0.397526
0.695051 0.801957 0.395488
0.800326 0.804621 0.396095
0.903945 0.804915 0.395615
1.00383 0.800161 0.404065
1.1 0.8 0.4
0 0.9 0.4
0.100713 0.901621 0.400438
0.203645 0.902339 0.400213
0.303682 0.897453 0.396573
0.396604 0.89834 0.397387
0.504301 0.896058 0.40199
0.596892 0.903816 0.404613
0.699655 0.903791 0.395051
0.803199 0.897286 0.404087
0.895011 0.900562 0.402566
0.997587 0.896931 0.395841
1.1 0.9 0.4
0 1 0.4
0.0982643 1.0006 0.396158
0.198767 0.995091 0.403187
0.296284 0.997833 0.395184
0.399322 1.0034 0.398922
0.496795 1.00254 0.402888
0.596738 1.00271 0.404473
0.696664 1.00271 0.402086
0.799736 0.995579 0.395747
0.903524 1.0049 0.401761
0.99946 1.00148 0.400944
1.1 1 0.4
0 1.1 0.4
0.1 1.1 0.4
0.2 1.1 0.4
0.3 1.1 0.4
0.4 1.1 0.4
0.5 1.1 0.4
0.6 1.1 0.4
0.7 1.1 0.4
0.8 1.1 0.4
0.9 1.1 0.4
1 1.1 0.4
1.1 1.1 0.4
0 0 0.5
0.1 0 0.5
0.2 0 0.5
0.3 0 0.5
0.4 0 0.5
0.5 0 0.5
0.6 0 0.5
0.7 0 0.5
0.8 0 0.5
0.9 0 0.5
1 0 0.5
1.1 0 0.5
0 0.1 0.5
0.0988361 0.0956563 0.503215
0.198718 0.103188 0.497525
0.29501 0.0965894 0.499685
0.404443 0.0960219 0.503542
0.50027 0.103259 0.497984
0.603399 0.102728 0.497301
0.696313 0.103681 0.504632
0.795313 0.102313 0.504095
0.903574 0.104645 0.502601
0.999423 0.0981195 0.498207
1.1 0.1 0.5
0 0.2 0.5
0.102244 0.202458 0.497004
0.203681 0.202149 0.500628
0.299715 0.200432 0.496592
0.397037 0.195912 0.496537
0.499537 0.200304 0.495179
0.602968 0.197942 0.504118
0.704675 0.196855 0.499621
0.795012 0.200983 0.501073
0.897475 0.200584 0.497255
0.996608 0.201515 0.498259
1.1 0.2 0.5
0 0.3 0.5
0.100903 0.299332 0.504844
0.196496 0.299646 0.501805
0.298955 0.304747 0.502219
0.40157 0.302571 0.504526
0.504078 0.302243 0.502492
0.596459 0.296028 0.500709
0.695184 0.299824 0.497103
0.79846 0.302758 0.504412
0.895724 0.300342 0.503825
0.995825 0.303245 0.498578
1.1 0.3 0.5
0 0.4 0.5
0.0982209 0.404775 0.497009
0.201932 0.403214 0.495412
0.301704 0.404515 0.496242
0.403962 0.400948 0.501166
0.501129 0.397988 0.504352
0.604474 0.401253 0.502834
0.701123 0.399844 0.501608
0.80053 0.400975 0.502838
0.899809 0.395408 0.49664
0.999386 0.402248 0.500933
1.1 0.4 0.5
0 0.5 0.5
0.101503 0.499793 0.501157
0.19829 0.499702 0.502443
0.303718 0.499337 0.495437
0.396617 0.495209 0.501533
0.498323 0.500425 0.499933
0.595815 0.499033 0.497206
0.699184 0.497036 0.503405
0.796742 0.504608 0.499159
0.903462 0.501288 0.502354
1.00268 0.500048 0.500433
1.1 0.5 0.5
0 0.6 0.5
0.10014 0.600881 0.495294
0.198955 0.601062 0.500977
0.30293 0.60155 0.504921
0.397839 0.598592 0.498838
0.499658 0.60336 0.497358
0.60276 0.599053 0.501019
0.701325 0.598728 0.500126
0.79913 0.595691 0.499372
0.895974 0.59905 0.500929
1.00079 0.601626 0.495953
1.1 0.6 0.5
0 0.7 0.5
0.101521 0.698121 0.49899
0.20358 0.69509 0.500884
0.300987 0.698967 0.49737
0.397347 0.703837 0.49942
0.498309 0.699488 0.501694
0.596458 0.699494 0.500879
0.704486 0.697525 0.498593
0.798794 0.701055 0.498567
0.900335 0.702818 0.502054
0.999464 0.703642 0.500581
1.1 0.7 0.5
0 0.8 0.5
0.100399 0.795342 0.504867
0.19623 0.797311 0.495517
0.3014 0.797247 0.4968
0.395886 0.796033 0.500847
0.501882 0.798974 0.499799
0.60186 0.795174 0.498231
0.704731 0.800801 0.497542
0.800217 0.798427 0.500322
0.896257 0.796327 0.496435
1.0044 0.802329 0.496624
1.1 0.8 0.5
0 0.9 0.5
0.0968835 0.902308 0.496562
0.197346 0.904633 0.497553
0.301616 0.904786 0.498743
0.395175 0.897441 0.503309
0.503646 0.902685 0.496131
0.602955 0.904187 0.501006
0.704409 0.903268 0.50167
0.800772 0.898486 0.496593
0.90105 0.898181 0.503664
1.00493 0.902524 0.495905
1.1 0.9 0.5
0 1 0.5
0.0978869 0.996091 0.501505
0.202652 1.00426 0.499382
0.304014 1.00378 0.498172
0.403689 0.998757 0.497969
0.501491 0.998284 0.501302
0.601098 1.00063 0.498804
0.700485 1.00096 0.500457
0.799444 0.995147 0.500871
0.896684 1.00143 0.502593
1 1.00042 0.504515
1.1 1 0.5
0 1.1 0.5
0.1 1.1 0.5
0.2 1.1 0.5
0.3 1.1 0.5
0.4 1.1 0.5
0.5 1.1 0.5
0.6 1.1 0.5
0.7 1.1 0.5
0.8 1.1 0.5
0.9 1.1 0.5
1 1.1 0.5
1.1 1.1 0.5
0 0 0.6
0.1 0 0.6
0.2 0 0.6
0.3 0 0.6
0.4 0 0.6
0.5 0 0.6
0.6 0 0.6
0.7 0 0.6
0.8 0 0.6
0.9 0 0.6
1 0 0.6
1.1 0 0.6
0 0.1 0.6
0.103472 0.104142 0.603138
0.196089 0.0964899 0.600266
0.297461 0.099767 0.598944
0.400494 0.102469 0.602155
0.500212 0.103224 0.599309
0.603967 0.0957128 0.604547
0.701547 0.0988007 0.596972
0.799792 0.0969456 0.596663
0.901174 0.100231 0.601701
1.0043 0.100323 0.600809
1.1 0.1 0.6
0 0.2 0.6
0.0958963 0.202176 0.598999
0.204767 0.203232 0.600225
0.296232 0.203594 0.602998
0.396846 0.197953 0.602934
0.496852 0.204178 0.599245
0.59587 0.203157 0.598735
0.700265 0.196123 0.595026
0.80138 0.200152 0.600935
0.902937 0.201466 0.596748
0.998608 0.204059 0.602699
1.1 0.2 0.6
0 0.3 0.6
0.100566 0.297556 0.598021
0.20232 0.303512 0.601714
0.303095 0.302667 0.596497
0.399239 0.29653 0.597352
0.503693 0.299729 0.600354
0.596784 0.298123 0.597302
0.697062 0.30138 0.597569
0.80132 0.295585 0.596418
0.897745 0.30097 0.601758
0.999427 0.299458 0.602245
1.1 0.3 0.6
0 0.4 0.6
0.0951582 0.398411 0.603187
0.201032 0.398372 0.604055
0.302726 0.397649 0.601453
0.400958 0.399012 0.59867
0.498436 0.401172 0.599424
0.603319 0.401696 0.595699
0.701402 0.397711 0.600928
0.801801 0.397308 0.599569
0.896903 0.395523 0.598785
0.998629 0.404955 0.599464
1.1 0.4 0.6
0 0.5 0.6
0.0983357 0.500805 0.595888
0.204617 0.50135 0.602548
0.296705 0.499095 0.599227
0.403218 0.495012 0.598009
0.504812 0.499749 0.598825
0.596198 0.504742 0.5952
0.702372 0.502686 0.597437
0.801716 0.495929 0.59757
0.902879 0.503647 0.601085
1.00007 0.496593 0.595631
1.1 0.5 0.6
0 0.6 0.6
0.0961765 0.597274 0.598417
0.198809 0.598463 0.597391
0.300097 0.603253 0.597797
0.404424 0.603733 0.596618
0.502863 0.600746 0.600666
0.59891 0.600012 0.598972
0.700397 0.60128 0.601743
0.800325 0.602214 0.596413
0.89712 0.603187 0.598225
0.995229 0.596538 0.597236
1.1 0.6 0.6
0 0.7 0.6
0.104573 0.70073 0.604327
0.200752 0.699794 0.598137
0.301064 0.696392 0.603983
0.403293 0.698175 0.604528
0.503252 0.701663 0.596218
0.599782 0.700061 0.597326
0.6958 0.702767 0.59622
0.800943 0.704364 0.603761
0.897778 0.703514 0.595003
0.995177 0.701026 0.598648
1.1 0.7 0.6
0 0.8 0.6
0.0988646 0.800644 0.596918
0.197118 0.799846 0.602543
0.301195 0.797974 0.599303
0.396707 0.795746 0.602827
0.497654 0.796778 0.601916
0.601181 0.801332 0.597289
0.697326 0.797208 0.596738
0.801557 0.80348 0.602243
0.902921 0.799048 0.601541
0.998542 0.800255 0.599816
1.1 0.8 0.6
0 0.9 0.6
0.0967689 0.898871 0.604638
0.197486 0.896338 0.599186
0.302903 0.900821 0.60181
0.396897 0.901189 0.598235
0.503343 0.901293 0.596989
0.595646 0.895426 0.598714
0.697659 0.901461 0.599993
0.79766 0.896492 0.596272
0.903647 0.897435 0.601517
1.00311 0.901141 0.603596
1.1 0.9 0.6
0 1 0.6
0.0989239 1.00456 0.596331
0.196021 1.00159 0.604428
0.303089 0.995764 0.597794
0.404303 0.997531 0.602812
0.503251 0.999955 0.598863
0.599501 0.99727 0.603894
0.699506 1.00382 0.596057
0.804883 0.999433 0.595478
0.89538 1.00246 0.60159
1.00302 0.996054 0.595356
1.1 1 0.6
0 1.1 0.6
0.1 1.1 0.6
0.2 1.1 0.6
0.3 1.1 0.6
0.4 1.1 0.6
0.5 1.1 0.6
0.6 1.1 0.6
0.7 1.1 0.6
0.8 1.1 0.6
0.9 1.1 0.6
1 1.1 0.6
1.1 1.1 0.6
0 0 0.7
0.1 0 0.7
0.2 0 0.7
0.3 0 0.7
0.4 0 0.7
0.5 0 0.7
0.6 0 0.7
0.7 0 0.7
0.8 0 0.7
0.9 0 0.7
1 0 0.7
1.1 0 0.7
0 0.1 0.7
0.100086 0.098876 0.699619
0.204916 0.104707 0.704423
0.302838 0.0985484 0.699121
0.400496 0.103305 0.695687
0.499243 0.0958262 0.700147
0.603989 0.102825 0.697278
0.70476 0.101674 0.695104
0.797554 0.0976071 0.695693
0.904598 0.0997826 0.703958
0.998222 0.0962523 0.699743
1.1 0.1 0.7
0 0.2 0.7
0.0961396 0.19986 0.704203
0.200208 0.201165 0.696566
0.295437 0.196108 0.700985
0.39595 0.19876 0.700501
0.498887 0.196637 0.697738
0.604283 0.20176 0.69996
0.695127 0.204924 0.701715
0.798169 0.203793 0.697584
0.90044 0.201361 0.697211
1.00478 0.202482 0.700578
1.1 0.2 0.7
0 0.3 0.7
0.0968059 0.295539 0.698201
0.202532 0.297693 0.700396
0.302279 0.296079 0.701853
0.395919 0.304651 0.699884
0.496507 0.298424 0.699134
0.602582 0.302434 0.701119
0.696059 0.296516 0.695938
0.800772 0.303771 0.699338
0.896608 0.30058 0.703118
1.00242 0.303815 0.697779
1.1 0.3 0.7
0 0.4 0.7
0.0969395 0.403798 0.701576
0.198109 0.402423 0.703151
0.30115 0.401879 0.698753
0.400387 0.400242 0.70348
0.5034 0.403327 0.69511
0.602495 0.402587 0.701784
0.702563 0.40342 0.699703
0.800021 0.396247 0.698854
0.901434 0.402804 0.697172
0.996378 0.40163 0.695019
1.1 0.4 0.7
0 0.5 0.7
0.0967837 0.495291 0.696669
0.196813 0.498877 0.699023
0.303743 0.500101 0.702234
0.396041 0.497254 0.702029
0.495528 0.499866 0.700994
0.601021 0.495229 0.698221
0.701365 0.49649 0.701954
0.802459 0.50482 0.697098
0.903251 0.500203 0.698735
0.996224 0.502355 0.697359
1.1 0.5 0.7
0 0.6 0.7
0.0987142 0.595625 0.703014
0.202666 0.602336 0.697994
0.296735 0.601376 0.699962
0.396783 0.601859 0.704911
0.502472 0.6024 0.704503
0.597029 0.600655 0.704796
0.696653 0.602003 0.700858
0.800865 0.601977 0.704296
0.902826 0.595561 0.703527
0.997255 0.598769 0.699617
1.1 0.6 0.7
0 0.7 0.7
0.0998091 0.699352 0.704374
0.20206 0.701312 0.695498
0.304039 0.704094 0.702802
0.39507 0.695573 0.697252
0.496313 0.698988 0.704226
0.599721 0.695134 0.697827
0.695446 0.695363 0.697757
0.797756 0.702871 0.704748
0.898712 0.699289 0.703448
0.997681 0.696564 0.703531
1.1 0.7 0.7
0 0.8 0.7
0.095465 0.801197 0.70062
0.198459 0.798152 0.702719
0.295864 0.797368 0.702324
0.400483 0.79628 0.703821
0.498934 0.803279 0.702877
0.601244 0.799945 0.704796
0.69645 0.802252 0.696912
0.798383 0.798087 0.70447
0.904674 0.79683 0.69522
1.0022 0.79918 0.695888
1.1 0.8 0.7
0 0.9 0.7
0.101838 0.900451 0.704805
0.197274 0.89904 0.700425
0.302917 0.900488 0.701129
0.397261 0.903469 0.699286
0.49641 0.901642 0.697161
0.595976 0.90362 0.699602
0.702493 0.897906 0.70287
0.796119 0.89856 0.704781
0.90294 0.899973 0.698398
1.00372 0.900448 0.702584
1.1 0.9 0.7
0 1 0.7
0.102541 0.995179 0.696263
0.201596 0.996616 0.697555
0.304466 1.0006 0.702507
0.40058 1.00053 0.695942
0.498437 0.997824 0.698907
0.602983 0.998719 0.699517
0.698974 0.995934 0.699411
0.796956 0.996867 0.69594
0.898567 1.00257 0.697764
0.998123 1.00143 0.696958
1.1 1 0.7
0 1.1 0.7
0.1 1.1 0.7
0.2 1.1 0.7
0.3 1.1 0.7
0.4 1.1 0.7
0.5 1.1 0.7
0.6 1.1 0.7
0.7 1.1 0.7
0.8 1.1 0.7
0.9 1.1 0.7
1 1.1 0.7
1.1 1.1 0.7
0 0 0.8
0.1 0 0.8
0.2 0 0.8
0.3 0 0.8
0.4 0 0.8
0.5 0 0.8
0.6 0 0.8
0.7 0 0.8
0.8 0 0.8
0.9 0 0.8
1 0 0.8
1.1 0 0.8
0 0.1 0.8
0.10397 0.100202 0.799476
0.200578 0.0966603 0.801135
0.298631 0.103972 0.796689
0.400071 0.100981 0.795334
0.498637 0.102326 0.803204
0.598132 0.102986 0.804678
0.703569 0.0961764 0.802397
0.798197 0.104884 0.799854
0.896224 0.102252 0.79823
1.00497 0.104798 0.801561
1.1 0.1 0.8
0 0.2 0.8
0.0962983 0.201869 0.79593
0.195294 0.20323 0.797098
0.29879 0.204735 0.798368
0.397965 0.204182 0.796107
0.502596 0.204881 0.804013
0.601517 0.198141 0.797543
0.703193 0.203798 0.800254
0.797443 0.196129 0.795872
0.902191 0.199201 0.804054
1.0024 0.196913 0.801138
1.1 0.2 0.8
0 0.3 0.8
0.0993551 0.300772 0.802381
0.203062 0.303437 0.79754
0.295311 0.302393 0.796063
0.398149 0.295038 0.801817
0.496671 0.301553 0.804917
0.595727 0.295771 0.798404
0.703664 0.297155 0.798604
0.795685 0.302632 0.799083
0.902592 0.304036 0.797328
1.00307 0.295591 0.803988
1.1 0.3 0.8
0 0.4 0.8
0.101508 0.403742 0.795002
0.196691 0.398898 0.798795
0.297267 0.398816 0.796288
0.399128 0.403024 0.799791
0.49518 0.399214 0.795272
0.604662 0.396275 0.802077
0.704728 0.40326 0.801993
0.803395 0.404818 0.801213
0.900592 0.401282 0.800327
1.00135 0.399498 0.797184
1.1 0.4 0.8
0 0.5 0.8
0.0962025 0.495683 0.797633
0.195461 0.500672 0.797838
0.303245 0.495742 0.797264
0.402302 0.500988 0.795645
0.503772 0.503773 0.798304
0.598404 0.50489 0.801262
0.700313 0.503382 0.797853
0.799292 0.497678 0.802892
0.900733 0.501588 0.797523
0.997202 0.499884 0.802376
1.1 0.5 0.8
0 0.6 0.8
0.100252 0.595326 0.803686
0.195647 0.604558 0.795251
0.301945 0.595822 0.804107
0.399644 0.596375 0.798408
0.496648 0.596706 0.804481
0.599452 0.602888 0.801396
0.701764 0.596317 0.797342
0.802868 0.604708 0.797627
0.897716 0.599729 0.804838
0.99769 0.59907 0.803915
1.1 0.6 0.8
0 0.7 0.8
0.0950292 0.695398 0.801041
0.204074 0.697389 0.799696
0.299505 0.69973 0.801225
0.399697 0.699475 0.799743
0.500909 0.70037 0.803541
0.595495 0.703333 0.803439
0.697849 0.699629 0.799385
0.797185 0.698968 0.795444
0.897778 0.703167 0.797846
1.00318 0.700316 0.803799
1.1 0.7 0.8
0 0.8 0.8
0.100748 0.795297 0.801754
0.195449 0.799506 0.804294
0.296652 0.798899 0.802299
0.403823 0.801709 0.797582
0.501746 0.797967 0.802184
0.60454 0.802214 0.803629
0.695021 0.802176 0.803296
0.795406 0.803716 0.797567
0.901653 0.803004 0.801627
0.995923 0.800963 0.800496
1.1 0.8 0.8
0 0.9 0.8
0.104003 0.899042 0.798211
0.202499 0.899127 0.801461
0.301465 0.90388 0.800987
0.400022 0.896389 0.796157
0.496543 0.896718 0.801379
0.60241 0.9003 0.80329
0.704913 0.9032 0.801949
0.800325 0.899489 0.795844
0.898994 0.904101 0.80308
0.997161 0.899666 0.803167
1.1 0.9 0.8
0 1 0.8
0.0956738 0.998874 0.803518
0.199039 0.995776 0.800425
0.303617 1.0009 0.797263
0.398842 0.999501 0.800793
0.502594 0.995989 0.803897
0.595123 0.998701 0.795274
0.69893 1.00026 0.800117
0.796656 1.00146 0.795448
0.902619 1.00447 0.798398
1.00017 0.998789 0.795067
1.1 1 0.8
0 1.1 0.8
0.1 1.1 0.8
0.2 1.1 0.8
0.3 1.1 0.8
0.4 1.1 0.8
0.5 1.1 0.8
0.6 1.1 0.8
0.7 1.1 0.8
0.8 1.1 0.8
0.9 1.1 0.8
1 1.1 0.8
1.1 1.1 0.8
0 0 0.9
0.1 0 0.9
0.2 0 0.9
0.3 0 0.9
0.4 0 0.9
0.5 0 0.9
0.6 0 0.9
0.7 0 0.9
0.8 0 0.9
0.9 0 0.9
1 0 0.9
1.1 0 0.9
0 0.1 0.9
0.0988587 0.102917 0.90096
0.196013 0.103471 0.900311
0.303417 0.100802 0.900597
0.396053 0.0966736 0.90472
0.497285 0.104775 0.900319
0.596358 0.095993 0.897089
0.704256 0.0991415 0.898954
0.798132 0.0964706 0.899879
0.8963 0.103355 0.898704
0.998748 0.0997401 0.899441
1.1 0.1 0.9
0 0.2 0.9
0.104949 0.200454 0.895882
0.201069 0.196516 0.895309
0.304707 0.202735 0.904801
0.399779 0.200323 0.896683
0.497469 0.203385 0.898562
0.603268 0.20209 0.896772
0.700074 0.201774 0.89735
0.803307 0.200448 0.896652
0.90083 0.204997 0.896505
1.00317 0.197073 0.902824
1.1 0.2 0.9
0 0.3 0.9
0.102346 0.298005 0.898258
0.202925 0.299614 0.902308
0.29648 0.303526 0.902109
0.404069 0.296324 0.90093
0.500991 0.298535 0.899585
0.59538 0.302459 0.900493
0.695577 0.301808 0.899668
0.795345 0.304696 0.904491
0.900129 0.295937 0.902546
0.999919 0.298024 0.899914
1.1 0.3 0.9
0 0.4 0.9
0.100224 0.400627 0.899412
0.201058 0.404187 0.898623
0.302257 0.403945 0.89956
0.399435 0.401021 0.900914
0.503066 0.399765 0.904961
0.595595 0.395032 0.901402
0.697984 0.397404 0.898119
0.79756 0.395308 0.904715
0.897207 0.40234 0.902626
1.00429 0.395305 0.90372
1.1 0.4 0.9
0 0.5 0.9
0.100272 0.501325 0.901445
0.203198 0.498334 0.902331
0.300286 0.502934 0.904905
0.397007 0.504946 0.895898
0.495023 0.495442 0.898418
0.601329 0.49569 0.895057
0.704371 0.503219 0.903092
0.803844 0.502 0.896044
0.898991 0.502231 0.897803
1.00187 0.495245 0.898061
1.1 0.5 0.9
0 0.6 0.9
0.100491 0.601321 0.90077
0.201978 0.595061 0.896009
0.303689 0.601817 0.896129
0.403421 0.597422 0.899783
0.496452 0.602101 0.901669
0.597111 0.603634 0.899013
0.697925 0.596523 0.897662
0.79522 0.600833 0.903422
0.90049 0.597193 0.895337
0.997146 0.599161 0.902596
1.1 0.6 0.9
0 0.7 0.9
0.0968784 0.702198 0.903669
0.199539 0.703214 0.900547
0.301371 0.700263 0.899632
0.397347 0.698032 0.8979
0.500633 0.6962 0.904168
0.602207 0.699014 0.896586
0.70382 0.703238 0.902217
0.797715 0.699024 0.896027
0.89689 0.70283 0.90215
1.00093 0.703957 0.900833
1.1 0.7 0.9
0 0.8 0.9
0.0996697 0.798404 0.904404
0.195827 0.804309 0.903267
0.296299 0.80065 0.903665
0.400718 0.804072 0.90443
0.499224 0.798773 0.904363
0.601751 0.79616 0.895423
0.700646 0.804302 0.903442
0.801758 0.796391 0.897542
0.903755 0.796828 0.897784
0.996296 0.801761 0.90444
1.1 0.8 0.9
0 0.9 0.9
0.0976897 0.899754 0.901343
0.204995 0.896048 0.899986
0.298851 0.903658 0.89976
0.39611 0.901344 0.902708
0.495029 0.90359 0.89686
0.600521 0.899158 0.902197
0.698712 0.903698 0.902305
0.801477 0.902962 0.90254
0.895359 0.898947 0.904308
0.996257 0.902371 0.904746
1.1 0.9 0.9
0 1 0.9
0.095522 1.00182 0.899682
0.200792 0.995853 0.89543
0.301669 1.00323 0.90282
0.400438 0.995999 0.90188
0.497419 1.00411 0.903383
0.602094 1.00449 0.895314
0.702362 0.998302 0.904061
0.797667 1.00225 0.903776
0.895417 0.998976 0.902623
0.999549 0.997673 0.897198
1.1 1 0.9
0 1.1 0.9
0.1 1.1 0.9
0.2 1.1 0.9
0.3 1.1 0.9
0.4 1.1 0.9
0.5 1.1 0.9
0.6 1.1 0.9
0.7 1.1 0.9
0.8 1.1 0.9
0.9 1.1 0.9
1 1.1 0.9
1.1 1.1 0.9
0 0 1
0.1 0 1
0.2 0 1
0.3 0 1
0.4 0 1
0.5 0 1
0.6 0 1
0.7 0 1
0.8 0 1
0.9 0 1
1 0 1
1.1 0 1
0 0.1 1
0.0963152 0.103571 1.00075
0.195764 0.0988258 0.998677
0.296817 0.0993551 0.998321
0.398418 0.10239 0.997233
0.501419 0.100706 1.00068
0.60163 0.100484 1.00379
0.701756 0.10047 1.0033
0.801061 0.0979114 0.997071
0.896523 0.103995 1.0021
1.00437 0.101033 0.999734
1.1 0.1 1
0 0.2 1
0.0955972 0.201716 1.00082
0.204902 0.197392 1.00031
0.30151 0.201446 1.00061
0.402769 0.19705 1.00226
0.501197 0.203961 1.00347
0.598151 0.197762 1.00482
0.700273 0.204064 0.996639
0.801428 0.203099 1.00447
0.898373 0.20225 1.00039
0.995606 0.2019 1.0019
1.1 0.2 1
0 0.3 1
0.104306 0.299973 0.997303
0.195446 0.299156 0.998019
0.302611 0.298543 1.00449
0.404623 0.301209 1.00429
0.502609 0.300469 0.996803
0.599586 0.300609 1.00364
0.699813 0.303977 1.00174
0.79637 0.30495 1.00027
0.898919 0.301591 0.996089
1.00137 0.299982 0.999067
1.1 0.3 1
0 0.4 1
0.10453 0.400225 0.997191
0.19959 0.404194 0.996761
0.29714 0.39513 0.995142
0.403294 0.402321 0.99855
0.501983 0.398952 1.00453
0.604671 0.398928 1.00354
0.702731 0.3981 0.99732
0.799582 0.402813 1.0046
0.902636 0.403552 1.00103
1.00335 0.402844 0.99877
1.1 0.4 1
0 0.5 1
0.10052 0.503048 0.995461
0.203081 0.496779 1.00015
0.303083 0.497538 0.997458
0.399028 0.503946 0.995004
0.504014 0.496538 1.0049
0.604548 0.499947 1.00013
0.699815 0.501354 0.995907
0.795326 0.495577 0.999444
0.897755 0.50122 1.00492
0.998863 0.500738 0.999156
1.1 0.5 1
0 0.6 1
0.103473 0.604022 1.00377
0.204744 0.595275 1.0034
0.302518 0.597287 1.00456
0.396482 0.601795 0.997249
0.499314 0.602192 1.00063
0.599275 0.598263 1.0034
0.696438 0.599301 1.00404
0.803458 0.599009 1.00263
0.903232 0.603889 1.00045
0.997045 0.597553 0.997957
1.1 0.6 1
0 0.7 1
0.100938 0.695328 1.00136
0.198644 0.697952 1.00379
0.2996 0.695951 1.00327
0.395476 0.702267 1.00274
0.498526 0.703248 1.00016
0.599633 0.695454 0.9979
0.70431 0.698918 1.00047
0.80032 0.700904 0.995613
0.898622 0.702231 0.997006
0.997036 0.695101 0.999375
1.1 0.7 1
0 0.8 1
0.103827 0.795519 0.996911
0.198101 0.802317 1.00141
0.299159 0.802591 1.0011
0.40396 0.80318 0.997528
0.497714 0.796254 0.99837
0.604995 0.799058 0.997205
0.702625 0.800425 0.996496
0.798807 0.799145 1.00254
0.895207 0.79769 1.00018
0.997688 0.801284 0.999819
1.1 0.8 1
0 0.9 1
0.0986171 0.904492 1.00132
0.196299 0.900601 1.00281
0.302085 0.896721 1.00472
0.399488 0.89659 0.996802
0.495982 0.903035 0.99622
0.596251 0.903505 0.998446
0.695309 0.895519 0.996422
0.797134 0.901651 0.996573
0.896189 0.902647 1.00171
0.999353 0.900493 0.99812
1.1 0.9 1
0 1 1
0.099825 1.00007 0.998872
0.204066 0.995161 1.00282
0.296244 1.00298 1.00116
0.403433 0.995975 1.00059
0.500011 1.00206 1.00034
0.600407 0.999296 0.998088
0.699823 0.996185 1.00462
0.802144 1.00452 0.997267
0.903793 1.00309 1.00177
1.00125 0.998165 1.00316
1.1 1 1
0 1.1 1
0.1 1.1 1
0.2 1.1 1
0.3 1.1 1
0.4 1.1 1
0.5 1.1 1
0.6 1.1 1
0.7 1.1 1
0.8 1.1 1
0.9 1.1 1
1 1.1 1
1.1 1.1 1
0 0 1.1
0.1 0 1.1
0.2 0 1.1
0.3 0 1.1
0.4 0 1.1
0.5 0 1.1
0.6 0 1.1
0.7 0 1.1
0.8 0 1.1
0.9 0 1.1
1 0 1.1
1.1 0 1.1
0 0.1 1.1
0.1 0.1 1.1
0.2 0.1 1.1
0.3 0.1 1.1
0.4 0.1 1.1
0.5 0.1 1.1
0.6 0.1 1.1
0.7 0.1 1.1
0.8 0.1 1.1
0.9 0.1 1.1
1 0.1 1.1
1.1 0.1 1.1
0 0.2 1.1
0.1 0.2 1.1
0.2 0.2 1.1
0.3 0.2 1.1
0.4 0.2 1.1
0.5 0.2 1.1
0.6 0.2 1.1
0.7 0.2 1.1
0.8 0.2 1.1
0.9 0.2 1.1
1 0.2 1.1
1.1 0.2 1.1
0 0.3 1.1
0.1 0.3 1.1
0.2 0.3 1.1
0.3 0.3 1.1
0.4 0.3 1.1
0.5 0.3 1.1
0.6 0.3 1.1
0.7 0.3 1.1
0.8 0.3 1.1
0.9 0.3 1.1
1 0.3 1.1
1.1 0.3 1.1
0 0.4 1.1
0.1 0.4 1.1
0.2 0.4 1.1
0.3 0.4 1.1
0.4 0.4 1.1
0.5 0.4 1.1
0.6 0.4 1.1
0.7 0.4 1.1
0.8 0.4 1.1
0.9 0.4 1.1
1 0.4 1.1
1.1 0.4 1.1
0 0.5 1.1
0.1 0.5 1.1
0.2 0.5 1.1
0.3 0.5 1.1
0.4 0.5 1.1
0.5 0.5 1.1
0.6 0.5 1.1
0.7 0.5 1.1
0.8 0.5 1.1
0.9 0.5 1.1
1 0.5 1.1
1.1 0.5 1.1
0 0.6 1.1
0.1 0.6 1.1
0.2 0.6 1.1
0.3 0.6 1.1
0.4 0.6 1.1
0.5 0.6 1.1
0.6 0.6 1.1
0.7 0.6 1.1
0.8 0.6 1.1
0.9 0.6 1.1
1 0.6 1.1
1.1 0.6 1.1
0 0.7 1.1
0.1 0.7 1.1
0.2 0.7 1.1
0.3 0.7 1.1
0.4 0.7 1.1
0.5 0.7 1.1
0.6 0.7 1.1
0.7 0.7 1.1
0.8 0.7 1.1
0.9 0.7 1.1
1 0.7 1.1
1.1 0.7 1.1
0 0.8 1.1
0.1 0.8 1.1
0.2 0.8 1.1
0.3 0.8 1.1
0.4 0.8 1.1
0.5 0.8 1.1
0.6 0.8 1.1
0.7 0.8 1.1
0.8 0.8 1.1
0.9 0.8 1.1
1 0.8 1.1
1.1 0.8 1.1
0 0.9 1.1
0.1 0.9 1.1
0.2 0.9 1.1
0.3 0.9 1.1
0.4 0.9 1.1
0.5 0.9 1.1
0.6 0.9 1.1
0.7 0.9 1.1
0.8 0.9 1.1
0.9 0.9 1.1
1 0.9 1.1
1.1 0.9 1.1
0 1 1.1
0.1 1 1.1
0.2 1 1.1
0.3 1 1.1
0.4 1 1.1
0.5 1 1.1
0.6 1 1.1
0.7 1 1.1
0.8 1 1.1
0.9 1 1.1
1 1 1.1
1.1 1 1.1
0 1.1 1.1
0.1 1.1 1.1
0.2 1.1 1.1
0.3 1.1 1.1
0.4 1.1 1.1
0.5 1.1 1.1
0.6 1.1 1.1
0.7 1.1 1.1
0.8 1.1 1.1
0.9 1.1 1.1
1 1.1 1.1
1.1 1.1 1.1

POINT_DATA 1728
SCALARS NodeType int 1
LOOKUP_TABLE default
1
1
1
1
1
1
1
1
1
1
1
1
1
1
1
1
1
1
1
1
1
1
1
1
1
1
1
1
1
1
1
1
1
1
1
1
1
1
1
1
1
1
1
1
1
1
1
1
1
1
1
1
1
1
1
1
1
1
1
1
1
1
1
1
1
1
1
1
1
1
1
1
1
1
1
1
1
1
1
1
1
1
1
1
1
1
1
1
1
1
1
1
1
1
1
1
1
1
1
1
1
1
1
1
1
1
1
1
1
1
1
1
1
1
1
1
1
1
1
1
1
1
1
1
1
1
1
1
1
1
1
1
1
1
1
1
1
1
1
1
1
1
1
1
2
2
2
2
2
2
2
2
2
2
2
2
2
0
0
0
0
0
0
0
0
0
0
2
2
0
0
0
0
0
0
0
0
0
0
2
2
0
0
0
0
0
0
0
0
0
0
2
2
0
0
0
0
0
0
0
0
0
0
2
2
0
0
0
0
0
0
0
0
0
0
2
2
0
0
0
0
0
0
0
0
0
0
2
2
0
0
0
0
0
0
0
0
0
0
2
2
0
0
0
0
0
0
0
0
0
0
2
2
0
0
0
0
0
0
0
0
0
0
2
2
0
0
0
0
0
0
0
0
0
0
2
2
2
2
2
2
2
2
2
2
2
2
2
2
2
2
2
2
2
2
2
2
2
2
2
2
0
0
0
0
0
0
0
0
0
0
2
2
0
0
0
0
0
0
0
0
0
0
2
2
0
0
0
0
0
0
0
0
0
0
2
2
0
0
0
0
0
0
0
0
0
0
2
2
0
0
0
0
0
0
0
0
0
0
2
2
0
0
0
0
0
0
0
0
0
0
2
2
0
0
0
0
0
0
0
0
0
0
2
2
0
0
0
0
0
0
0
0
0
0
2
2
0
0
0
0
0
0
0
0
0
0
2
2
0
0
0
0
0
0
0
0
0
0
2
2
2
2
2
2
2
2
2
2
2
2
2
2
2
2
2
2
2
2
2
2
2
2
2
2
0
0
0
0
0
0
0
0
0
0
2
2
0
0
0
0
0
0
0
0
0
0
2
2
0
0
0
0
0
0
0
0
0
0
2
2
0
0
0
0
0
0
0
0
0
0
2
2
0
0
0
0
0
0
0
0
0
0
2
2
0
0
0
0
0
0
0
0
0
0
2
2
0
0
0
0
0
0
0
0
0
0
2
2
0
0
0
0
0
0
0
0
0
0
2
2
0
0
0
0
0
0
0
0
0
0
2
2
0
0
0
0
0
0
0
0
0
0
2
2
2
2
2
2
2
2
2
2
2
2
2
2
2
2
2
2
2
2
2
2
2
2
2
2
0
0
0
0
0
0
0
0
0
0
2
2
0
0
0
0
0
0
0
0
0
0
2
2
0
0
0
0
0
0
0
0
0
0
2
2
0
0
0
0
0
0
0
0
0
0
2
2
0
0
0
0
0
0
0
0
0
0
2
2
0
0
0
0
0
0
0
0
0
0
2
2
0
0
0
0
0
0
0
0
0
0
2
2
0
0
0
0
0
0
0
0
0
0
2
2
0
0
0
0
0
0
0
0
0
0
2
2
0
0
0
0
0
0
0
0
0
0
2
2
2
2
2
2
2
2
2
2
2
2
2
2
2
2
2
2
2
2
2
2
2
2
2
2
0
0
0
0
0
0
0
0
0
0
2
2
0
0
0
0
0
0
0
0
0
0
2
2
0
0
0
0
0
0
0
0
0
0
2
2
0
0
0
0
0
0
0
0
0
0
2
2
0
0
0
0
0
0
0
0
0
0
2
2
0
0
0
0
0
0
0
0
0
0
2
2
0
0
0
0
0
0
0
0
0
0
2
2
0
0
0
0
0
0
0
0
0
0
2
2
0
0
0
0
0
0
0
0
0
0
2
2
0
0
0
0
0
0
0
0
0
0
2
2
2
2
2
2
2
2
2
2
2
2
2
2
2
2
2
2
2
2
2
2
2
2
2
2
0
0
0
0
0
0
0
0
0
0
2
2
0
0
0
0
0
0
0
0
0
0
2
2
0
0
0
0
0
0
0
0
0
0
2
2
0
0
0
0
0
0
0
0
0
0
2
2
0
0
0
0
0
0
0
0
0
0
2
2
0
0
0
0
0
0
0
0
0
0
2
2
0
0
0
0
0
0
0
0
0
0
2
2
0
0
0
0
0
0
0
0
0
0
2
2
0
0
0
0
0
0
0
0
0
0
2
2
0
0
0
0
0
0
0
0
0
0
2
2
2
2
2
2
2
2
2
2
2
2
2
2
2
2
2
2
2
2
2
2
2
2
2
2
0
0
0
0
0
0
0
0
0
0
2
2
0
0
0
0
0
0
0
0
0
0
2
2
0
0
0
0
0
0
0
0
0
0
2
2
0
0
0
0
0
0
0
0
0
0
2
2
0
0
0
0
0
0
0
0
0
0
2
2
0
0
0
0
0
0
0
0
0
0
2
2
0
0
0
0
0
0
0
0
0
0
2
2
0
0
0
0
0
0
0
0
0
0
2
2
0
0
0
0
0
0
0
0
0
0
2
2
0
0
0
0
0
0
0
0
0
0
2
2
2
2
2
2
2
2
2
2
2
2
2
2
2
2
2
2
2
2
2
2
2
2
2
2
0
0
0
0
0
0
0
0
0
0
2
2
0
0
0
0
0
0
0
0
0
0
2
2
0
0
0
0
0
0
0
0
0
0
2
2
0
0
0
0
0
0
0
0
0
0
2
2
0
0
0
0
0
0
0
0
0
0
2
2
0
0
0
0
0
0
0
0
0
0
2
2
0
0
0
0
0
0
0
0
0
0
2
2
0
0
0
0
0
0
0
0
0
0
2
2
0
0
0
0
0
0
0
0
0
0
2
2
0
0
0
0
0
0
0
0
0
0
2
2
2
2
2
2
2
2
2
2
2
2
2
2
2
2
2
2
2
2
2
2
2
2
2
2
0
0
0
0
0
0
0
0
0
0
2
2
0
0
0
0
0
0
0
0
0
0
2
2
0
0
0
0
0
0
0
0
0
0
2
2
0
0
0
0
0
0
0
0
0
0
2
2
0
0
0
0
0
0
0
0
0
0
2
2
0
0
0
0
0
0
0
0
0
0
2
2
0
0
0
0
0
0
0
0
0
0
2
2
0
0
0
0
0
0
0
0
0
0
2
2
0
0
0
0
0
0
0
0
0
0
2
2
0
0
0
0
0
0
0
0
0
0
2
2
2
2
2
2
2
2
2
2
2
2
2
2
2
2
2
2
2
2
2
2
2
2
2
2
0
0
0
0
0
0
0
0
0
0
2
2
0
0
0
0
0
0
0
0
0
0
2
2
0
0
0
0
0
0
0
0
0
0
2
2
0
0
0
0
0
0
0
0
0
0
2
2
0
0
0
0
0
0
0
0
0
0
2
2
0
0
0
0
0
0
0
0
0
0
2
2
0
0
0
0
0
0
0
0
0
0
2
2
0
0
0
0
0
0
0
0
0
0
2
2
0
0
0
0
0
0
0
0
0
0
2
2
0
0
0
0
0
0
0
0
0
0
2
2
2
2
2
2
2
2
2
2
2
2
2
2
2
2
2
2
2
2
2
2
2
2
2
2
2
2
2
2
2
2
2
2
2
2
2
2
2
2
2
2
2
2
2
2
2
2
2
2
2
2
2
2
2
2
2
2
2
2
2
2
2
2
2
2
2
2
2
2
2
2
2
2
2
2
2
2
2
2
2
2
2
2
2
2
2
2
2
2
2
2
2
2
2
2
2
2
2
2
2
2
2
2
2
2
2
2
2
2
2
2
2
2
2
2
2
2
2
2
2
2
2
2
2
2
2
2
2
2
2
2
2
2
2
2
2
2
2
2
2
2
2
2
2
2
2
2
2
2
2
2
2
2
2
2
2
